<svg xmlns="http://www.w3.org/2000/svg" xmlns:xlink="http://www.w3.org/1999/xlink" width="500" zoomAndPan="magnify" viewBox="0 0 375 374.999991" height="500" preserveAspectRatio="xMidYMid meet" version="1.0"><path fill="#222222" d="M 162.921875 278.425781 L 162.921875 280.078125 C 162.921875 281.082031 162.675781 281.859375 162.183594 282.402344 C 161.699219 282.941406 160.972656 283.210938 160.015625 283.210938 C 159.054688 283.210938 158.328125 282.941406 157.835938 282.402344 C 157.347656 281.859375 157.109375 281.082031 157.109375 280.078125 L 157.109375 273.613281 C 157.109375 272.609375 157.347656 271.835938 157.835938 271.300781 C 158.328125 270.753906 159.054688 270.480469 160.015625 270.480469 C 160.972656 270.480469 161.699219 270.753906 162.183594 271.300781 C 162.675781 271.835938 162.921875 272.609375 162.921875 273.613281 L 162.921875 274.816406 L 161.085938 274.816406 L 161.085938 273.492188 C 161.085938 273.042969 160.992188 272.726562 160.808594 272.542969 C 160.625 272.355469 160.375 272.265625 160.070312 272.265625 C 159.757812 272.265625 159.511719 272.355469 159.328125 272.542969 C 159.148438 272.726562 159.0625 273.042969 159.0625 273.492188 L 159.0625 280.207031 C 159.0625 280.65625 159.148438 280.972656 159.328125 281.148438 C 159.511719 281.324219 159.757812 281.410156 160.070312 281.410156 C 160.375 281.410156 160.625 281.324219 160.808594 281.148438 C 160.992188 280.972656 161.085938 280.65625 161.085938 280.207031 L 161.085938 278.425781 Z M 162.921875 278.425781 " fill-opacity="1" fill-rule="nonzero"/><path fill="#222222" d="M 165.796875 280.207031 C 165.796875 280.65625 165.882812 280.976562 166.0625 281.160156 C 166.246094 281.339844 166.492188 281.425781 166.800781 281.425781 C 167.109375 281.425781 167.355469 281.339844 167.542969 281.160156 C 167.726562 280.976562 167.820312 280.65625 167.820312 280.207031 L 167.820312 273.492188 C 167.820312 273.042969 167.726562 272.726562 167.542969 272.542969 C 167.355469 272.355469 167.109375 272.265625 166.800781 272.265625 C 166.492188 272.265625 166.246094 272.355469 166.0625 272.542969 C 165.882812 272.726562 165.796875 273.042969 165.796875 273.492188 Z M 163.839844 273.613281 C 163.839844 272.609375 164.09375 271.835938 164.59375 271.300781 C 165.101562 270.753906 165.839844 270.480469 166.800781 270.480469 C 167.761719 270.480469 168.496094 270.753906 169.007812 271.300781 C 169.519531 271.835938 169.777344 272.609375 169.777344 273.613281 L 169.777344 280.078125 C 169.777344 281.082031 169.519531 281.859375 169.007812 282.402344 C 168.496094 282.941406 167.761719 283.210938 166.800781 283.210938 C 165.839844 283.210938 165.101562 282.941406 164.59375 282.402344 C 164.09375 281.859375 163.839844 281.082031 163.839844 280.078125 Z M 163.839844 273.613281 " fill-opacity="1" fill-rule="nonzero"/><path fill="#222222" d="M 170.910156 270.625 L 172.867188 270.625 L 172.867188 281.292969 L 176.078125 281.292969 L 176.078125 283.0625 L 170.910156 283.0625 Z M 170.910156 270.625 " fill-opacity="1" fill-rule="nonzero"/><path fill="#222222" d="M 176.808594 270.625 L 178.765625 270.625 L 178.765625 281.292969 L 181.976562 281.292969 L 181.976562 283.0625 L 176.808594 283.0625 Z M 176.808594 270.625 " fill-opacity="1" fill-rule="nonzero"/><path fill="#222222" d="M 184.664062 275.871094 L 187.347656 275.871094 L 187.347656 277.644531 L 184.664062 277.644531 L 184.664062 281.292969 L 188.035156 281.292969 L 188.035156 283.0625 L 182.707031 283.0625 L 182.707031 270.625 L 188.035156 270.625 L 188.035156 272.410156 L 184.664062 272.410156 Z M 184.664062 275.871094 " fill-opacity="1" fill-rule="nonzero"/><path fill="#222222" d="M 194.777344 278.425781 L 194.777344 280.078125 C 194.777344 281.082031 194.53125 281.859375 194.039062 282.402344 C 193.550781 282.941406 192.828125 283.210938 191.871094 283.210938 C 190.910156 283.210938 190.179688 282.941406 189.6875 282.402344 C 189.203125 281.859375 188.960938 281.082031 188.960938 280.078125 L 188.960938 273.613281 C 188.960938 272.609375 189.203125 271.835938 189.6875 271.300781 C 190.179688 270.753906 190.910156 270.480469 191.871094 270.480469 C 192.828125 270.480469 193.550781 270.753906 194.039062 271.300781 C 194.53125 271.835938 194.777344 272.609375 194.777344 273.613281 L 194.777344 274.816406 L 192.941406 274.816406 L 192.941406 273.492188 C 192.941406 273.042969 192.847656 272.726562 192.664062 272.542969 C 192.476562 272.355469 192.230469 272.265625 191.921875 272.265625 C 191.613281 272.265625 191.367188 272.355469 191.183594 272.542969 C 191.003906 272.726562 190.917969 273.042969 190.917969 273.492188 L 190.917969 280.207031 C 190.917969 280.65625 191.003906 280.972656 191.183594 281.148438 C 191.367188 281.324219 191.613281 281.410156 191.921875 281.410156 C 192.230469 281.410156 192.476562 281.324219 192.664062 281.148438 C 192.847656 280.972656 192.941406 280.65625 192.941406 280.207031 L 192.941406 278.425781 Z M 194.777344 278.425781 " fill-opacity="1" fill-rule="nonzero"/><path fill="#222222" d="M 195.285156 270.625 L 201.328125 270.625 L 201.328125 272.410156 L 199.277344 272.410156 L 199.277344 283.0625 L 197.320312 283.0625 L 197.320312 272.410156 L 195.285156 272.410156 Z M 195.285156 270.625 " fill-opacity="1" fill-rule="nonzero"/><path fill="#222222" d="M 202.054688 270.625 L 204.011719 270.625 L 204.011719 283.0625 L 202.054688 283.0625 Z M 202.054688 270.625 " fill-opacity="1" fill-rule="nonzero"/><path fill="#222222" d="M 208.253906 280.777344 L 209.746094 270.625 L 211.542969 270.625 L 209.613281 283.0625 L 206.707031 283.0625 L 204.789062 270.625 L 206.757812 270.625 Z M 208.253906 280.777344 " fill-opacity="1" fill-rule="nonzero"/><path fill="#222222" d="M 214.28125 275.871094 L 216.964844 275.871094 L 216.964844 277.644531 L 214.28125 277.644531 L 214.28125 281.292969 L 217.648438 281.292969 L 217.648438 283.0625 L 212.324219 283.0625 L 212.324219 270.625 L 217.648438 270.625 L 217.648438 272.410156 L 214.28125 272.410156 Z M 214.28125 275.871094 " fill-opacity="1" fill-rule="nonzero"/><path fill="#222222" d="M 70.972656 171.074219 L 70.972656 105.351562 L 86.757812 105.351562 L 86.757812 131.921875 L 97.648438 131.921875 C 99.464844 131.921875 101.140625 131.546875 102.671875 130.796875 C 104.207031 130.050781 105.410156 128.925781 106.28125 127.425781 C 107.152344 125.917969 107.589844 124.160156 107.589844 122.152344 L 107.589844 105.351562 L 123.375 105.351562 L 123.375 122.246094 C 123.375 126.441406 122.367188 130.199219 120.359375 133.519531 C 118.355469 136.835938 115.734375 139.496094 112.480469 141.503906 L 119.621094 156.519531 C 119.804688 157.023438 120.128906 157.402344 120.597656 157.65625 C 121.0625 157.90625 121.578125 158.027344 122.144531 158.027344 L 128.066406 158.027344 L 128.066406 171.074219 L 118.957031 171.074219 C 115.511719 171.074219 112.722656 170.421875 110.589844 169.105469 C 108.464844 167.792969 106.839844 165.980469 105.714844 163.660156 L 96.804688 145.058594 C 96.300781 145.058594 95.828125 145.058594 95.390625 145.058594 C 94.945312 145.058594 94.480469 145.058594 93.988281 145.058594 L 86.757812 145.058594 L 86.757812 171.074219 Z M 70.972656 171.074219 " fill-opacity="1" fill-rule="nonzero"/><path fill="#222222" d="M 121.113281 171.074219 L 142.421875 112.953125 C 143.484375 110.082031 145.238281 107.910156 147.683594 106.433594 C 150.121094 104.964844 152.875 104.226562 155.945312 104.226562 C 159.011719 104.226562 161.761719 104.933594 164.207031 106.34375 C 166.644531 107.742188 168.398438 109.917969 169.464844 112.859375 L 190.878906 171.074219 L 173.882812 171.074219 L 169.742188 158.398438 L 141.867188 158.398438 L 137.542969 171.074219 Z M 145.898438 145.351562 L 165.710938 145.351562 L 157.359375 119.152344 C 157.234375 118.773438 157.0625 118.511719 156.84375 118.359375 C 156.621094 118.199219 156.351562 118.121094 156.035156 118.121094 C 155.726562 118.121094 155.460938 118.21875 155.242188 118.410156 C 155.023438 118.597656 154.878906 118.84375 154.820312 119.152344 Z M 145.898438 145.351562 " fill-opacity="1" fill-rule="nonzero"/><path fill="#222222" d="M 188.894531 171.074219 L 188.894531 105.351562 L 218.941406 105.351562 C 223.386719 105.351562 227.441406 106.324219 231.101562 108.257812 C 234.765625 110.199219 237.675781 112.894531 239.839844 116.335938 C 241.996094 119.78125 243.078125 123.757812 243.078125 128.257812 C 243.078125 132.457031 242.074219 136.226562 240.0625 139.574219 C 238.0625 142.925781 235.4375 145.628906 232.183594 147.691406 L 237.445312 156.613281 C 237.753906 157.054688 238.109375 157.402344 238.515625 157.65625 C 238.921875 157.90625 239.472656 158.027344 240.167969 158.027344 L 245.984375 158.027344 L 245.984375 171.074219 L 236.785156 171.074219 C 233.964844 171.074219 231.394531 170.40625 229.078125 169.066406 C 226.769531 167.71875 224.953125 165.945312 223.632812 163.75 L 216.601562 151.261719 C 216.15625 151.261719 215.703125 151.261719 215.226562 151.261719 C 214.757812 151.261719 214.277344 151.261719 213.785156 151.261719 L 204.675781 151.261719 L 204.675781 171.074219 Z M 204.675781 138.214844 L 217.15625 138.214844 C 218.96875 138.214844 220.660156 137.824219 222.21875 137.035156 C 223.785156 136.253906 225.023438 135.128906 225.933594 133.664062 C 226.839844 132.195312 227.292969 130.425781 227.292969 128.351562 C 227.292969 126.289062 226.820312 124.523438 225.878906 123.050781 C 224.945312 121.582031 223.710938 120.453125 222.179688 119.667969 C 220.644531 118.882812 218.96875 118.492188 217.15625 118.492188 L 204.675781 118.492188 Z M 204.675781 138.214844 " fill-opacity="1" fill-rule="nonzero"/><path fill="#222222" d="M 239.6875 171.074219 L 260.996094 112.953125 C 262.0625 110.082031 263.816406 107.910156 266.257812 106.433594 C 268.699219 104.964844 271.453125 104.226562 274.519531 104.226562 C 277.585938 104.226562 280.339844 104.933594 282.78125 106.34375 C 285.222656 107.742188 286.976562 109.917969 288.042969 112.859375 L 309.457031 171.074219 L 292.457031 171.074219 L 288.320312 158.398438 L 260.441406 158.398438 L 256.121094 171.074219 Z M 264.472656 145.351562 L 284.289062 145.351562 L 275.933594 119.152344 C 275.808594 118.773438 275.636719 118.511719 275.417969 118.359375 C 275.199219 118.199219 274.929688 118.121094 274.613281 118.121094 C 274.300781 118.121094 274.039062 118.21875 273.820312 118.410156 C 273.597656 118.597656 273.457031 118.84375 273.398438 119.152344 Z M 264.472656 145.351562 " fill-opacity="1" fill-rule="nonzero"/><path fill="#222222" d="M 125.863281 255.316406 C 122.046875 255.316406 118.554688 254.476562 115.394531 252.792969 C 112.226562 251.101562 109.722656 248.753906 107.871094 245.746094 C 106.027344 242.742188 105.109375 239.175781 105.109375 235.039062 L 105.109375 206.410156 C 105.109375 205.402344 104.859375 204.5 104.355469 203.6875 C 103.859375 202.867188 103.207031 202.210938 102.386719 201.714844 C 101.574219 201.214844 100.667969 200.960938 99.664062 200.960938 C 98.664062 200.960938 97.757812 201.214844 96.9375 201.714844 C 96.125 202.210938 95.484375 202.867188 95.007812 203.6875 C 94.539062 204.5 94.308594 205.402344 94.308594 206.410156 L 94.308594 254.195312 L 78.921875 254.195312 L 78.921875 207.53125 C 78.921875 203.585938 79.8125 200.109375 81.59375 197.101562 C 83.371094 194.097656 85.84375 191.722656 89.007812 189.976562 C 92.171875 188.226562 95.722656 187.347656 99.664062 187.347656 C 103.671875 187.347656 107.238281 188.226562 110.371094 189.976562 C 113.496094 191.722656 115.96875 194.097656 117.785156 197.101562 C 119.601562 200.109375 120.507812 203.585938 120.507812 207.53125 L 120.507812 236.164062 C 120.507812 237.230469 120.757812 238.171875 121.261719 238.992188 C 121.765625 239.804688 122.402344 240.445312 123.179688 240.910156 C 123.960938 241.378906 124.824219 241.609375 125.769531 241.609375 C 126.773438 241.609375 127.691406 241.378906 128.53125 240.910156 C 129.378906 240.445312 130.050781 239.804688 130.554688 238.992188 C 131.058594 238.171875 131.308594 237.230469 131.308594 236.164062 L 131.308594 207.53125 C 131.308594 203.585938 132.214844 200.109375 134.03125 197.101562 C 135.84375 194.097656 138.332031 191.722656 141.488281 189.976562 C 144.648438 188.226562 148.175781 187.347656 152.0625 187.347656 C 156.058594 187.347656 159.613281 188.226562 162.714844 189.976562 C 165.816406 191.722656 168.273438 194.097656 170.09375 197.101562 C 171.90625 200.109375 172.816406 203.585938 172.816406 207.53125 L 172.816406 254.195312 L 157.414062 254.195312 L 157.414062 206.304688 C 157.414062 205.308594 157.175781 204.417969 156.703125 203.632812 C 156.230469 202.847656 155.589844 202.210938 154.769531 201.714844 C 153.957031 201.214844 153.054688 200.960938 152.0625 200.960938 C 151.117188 200.960938 150.222656 201.214844 149.378906 201.714844 C 148.53125 202.210938 147.859375 202.847656 147.355469 203.632812 C 146.859375 204.417969 146.617188 205.308594 146.617188 206.304688 L 146.617188 235.039062 C 146.617188 239.175781 145.675781 242.742188 143.800781 245.746094 C 141.921875 248.753906 139.414062 251.101562 136.277344 252.792969 C 133.148438 254.476562 129.675781 255.316406 125.863281 255.316406 Z M 125.863281 255.316406 " fill-opacity="1" fill-rule="nonzero"/><path fill="#222222" d="M 170.171875 254.195312 L 191.480469 196.070312 C 192.546875 193.199219 194.300781 191.027344 196.742188 189.554688 C 199.179688 188.085938 201.9375 187.347656 205.003906 187.347656 C 208.070312 187.347656 210.824219 188.054688 213.265625 189.460938 C 215.703125 190.863281 217.460938 193.039062 218.527344 195.980469 L 239.941406 254.195312 L 222.941406 254.195312 L 218.804688 241.519531 L 190.925781 241.519531 L 186.605469 254.195312 Z M 194.957031 228.472656 L 214.773438 228.472656 L 206.417969 202.269531 C 206.292969 201.894531 206.121094 201.628906 205.902344 201.476562 C 205.679688 201.320312 205.414062 201.238281 205.097656 201.238281 C 204.785156 201.238281 204.523438 201.339844 204.304688 201.53125 C 204.082031 201.714844 203.941406 201.964844 203.878906 202.269531 Z M 194.957031 228.472656 " fill-opacity="1" fill-rule="nonzero"/><path fill="#222222" d="M 237.953125 254.195312 L 237.953125 188.472656 L 253.738281 188.472656 L 253.738281 214.285156 L 279.367188 214.285156 L 279.367188 188.472656 L 295.136719 188.472656 L 295.136719 254.195312 L 279.367188 254.195312 L 279.367188 227.441406 L 253.738281 227.441406 L 253.738281 254.195312 Z M 237.953125 254.195312 " fill-opacity="1" fill-rule="nonzero"/></svg>